<mxfile host="app.diagrams.net" agent="Mozilla/5.0 (Windows NT 10.0; Win64; x64) AppleWebKit/537.36 (KHTML, like Gecko) Chrome/131.0.0.0 Safari/537.36" version="25.0.1">
  <diagram id="C5RBs43oDa-KdzZeNtuy" name="Page-1">
    <mxGraphModel dx="3827" dy="2660" grid="1" gridSize="10" guides="1" tooltips="1" connect="1" arrows="1" fold="1" page="1" pageScale="1" pageWidth="827" pageHeight="1169" math="0" shadow="0">
      <root>
        <mxCell id="WIyWlLk6GJQsqaUBKTNV-0" />
        <mxCell id="WIyWlLk6GJQsqaUBKTNV-1" parent="WIyWlLk6GJQsqaUBKTNV-0" />
        <mxCell id="GomE2aPVJoHyCFGDOmeS-0" value="Service and Business Layer" style="swimlane;" vertex="1" parent="WIyWlLk6GJQsqaUBKTNV-1">
          <mxGeometry x="-630" y="320" width="2040" height="950" as="geometry" />
        </mxCell>
        <mxCell id="GomE2aPVJoHyCFGDOmeS-134" style="edgeStyle=orthogonalEdgeStyle;rounded=0;orthogonalLoop=1;jettySize=auto;html=1;" edge="1" parent="GomE2aPVJoHyCFGDOmeS-0" source="zkfFHV4jXpPFQw0GAbJ--13" target="GomE2aPVJoHyCFGDOmeS-131">
          <mxGeometry relative="1" as="geometry" />
        </mxCell>
        <mxCell id="GomE2aPVJoHyCFGDOmeS-139" value="1" style="edgeLabel;html=1;align=center;verticalAlign=middle;resizable=0;points=[];" vertex="1" connectable="0" parent="GomE2aPVJoHyCFGDOmeS-134">
          <mxGeometry x="-0.7462" relative="1" as="geometry">
            <mxPoint x="1" as="offset" />
          </mxGeometry>
        </mxCell>
        <mxCell id="GomE2aPVJoHyCFGDOmeS-140" value="0..n" style="edgeLabel;html=1;align=center;verticalAlign=middle;resizable=0;points=[];" vertex="1" connectable="0" parent="GomE2aPVJoHyCFGDOmeS-134">
          <mxGeometry x="0.7731" y="-5" relative="1" as="geometry">
            <mxPoint x="1" y="-10" as="offset" />
          </mxGeometry>
        </mxCell>
        <mxCell id="GomE2aPVJoHyCFGDOmeS-135" style="edgeStyle=orthogonalEdgeStyle;rounded=0;orthogonalLoop=1;jettySize=auto;html=1;" edge="1" parent="GomE2aPVJoHyCFGDOmeS-0" source="zkfFHV4jXpPFQw0GAbJ--13" target="GomE2aPVJoHyCFGDOmeS-105">
          <mxGeometry relative="1" as="geometry">
            <mxPoint x="860" y="649.9999999999995" as="sourcePoint" />
            <mxPoint x="1010" y="201" as="targetPoint" />
            <Array as="points">
              <mxPoint x="660" y="650" />
              <mxPoint x="1010" y="650" />
              <mxPoint x="1010" y="290" />
            </Array>
          </mxGeometry>
        </mxCell>
        <mxCell id="GomE2aPVJoHyCFGDOmeS-137" value="1" style="edgeLabel;html=1;align=center;verticalAlign=middle;resizable=0;points=[];" vertex="1" connectable="0" parent="GomE2aPVJoHyCFGDOmeS-135">
          <mxGeometry x="-0.9197" y="2" relative="1" as="geometry">
            <mxPoint x="1" as="offset" />
          </mxGeometry>
        </mxCell>
        <mxCell id="GomE2aPVJoHyCFGDOmeS-138" value="0..n" style="edgeLabel;html=1;align=center;verticalAlign=middle;resizable=0;points=[];" vertex="1" connectable="0" parent="GomE2aPVJoHyCFGDOmeS-135">
          <mxGeometry x="0.8776" relative="1" as="geometry">
            <mxPoint as="offset" />
          </mxGeometry>
        </mxCell>
        <mxCell id="GomE2aPVJoHyCFGDOmeS-271" style="edgeStyle=orthogonalEdgeStyle;rounded=0;orthogonalLoop=1;jettySize=auto;html=1;" edge="1" parent="GomE2aPVJoHyCFGDOmeS-0" source="zkfFHV4jXpPFQw0GAbJ--13" target="GomE2aPVJoHyCFGDOmeS-99">
          <mxGeometry relative="1" as="geometry">
            <Array as="points">
              <mxPoint x="610" y="497" />
              <mxPoint x="450" y="497" />
              <mxPoint x="450" y="257" />
            </Array>
          </mxGeometry>
        </mxCell>
        <mxCell id="GomE2aPVJoHyCFGDOmeS-272" value="1" style="edgeLabel;html=1;align=center;verticalAlign=middle;resizable=0;points=[];" vertex="1" connectable="0" parent="GomE2aPVJoHyCFGDOmeS-271">
          <mxGeometry x="-0.7916" y="1" relative="1" as="geometry">
            <mxPoint as="offset" />
          </mxGeometry>
        </mxCell>
        <mxCell id="GomE2aPVJoHyCFGDOmeS-273" value="0..n" style="edgeLabel;html=1;align=center;verticalAlign=middle;resizable=0;points=[];" vertex="1" connectable="0" parent="GomE2aPVJoHyCFGDOmeS-271">
          <mxGeometry x="0.8787" y="2" relative="1" as="geometry">
            <mxPoint x="1" as="offset" />
          </mxGeometry>
        </mxCell>
        <mxCell id="zkfFHV4jXpPFQw0GAbJ--13" value="Model" style="swimlane;fontStyle=0;align=center;verticalAlign=top;childLayout=stackLayout;horizontal=1;startSize=26;horizontalStack=0;resizeParent=1;resizeLast=0;collapsible=1;marginBottom=0;rounded=0;shadow=0;strokeWidth=1;" parent="GomE2aPVJoHyCFGDOmeS-0" vertex="1">
          <mxGeometry x="580" y="680" width="160" height="190" as="geometry">
            <mxRectangle x="340" y="380" width="170" height="26" as="alternateBounds" />
          </mxGeometry>
        </mxCell>
        <mxCell id="GomE2aPVJoHyCFGDOmeS-112" value="&amp;nbsp;-source:Path" style="text;html=1;align=left;verticalAlign=middle;resizable=0;points=[];autosize=1;strokeColor=none;fillColor=none;" vertex="1" parent="zkfFHV4jXpPFQw0GAbJ--13">
          <mxGeometry y="26" width="160" height="30" as="geometry" />
        </mxCell>
        <mxCell id="zkfFHV4jXpPFQw0GAbJ--15" value="" style="line;html=1;strokeWidth=1;align=left;verticalAlign=middle;spacingTop=-1;spacingLeft=3;spacingRight=3;rotatable=0;labelPosition=right;points=[];portConstraint=eastwest;" parent="zkfFHV4jXpPFQw0GAbJ--13" vertex="1">
          <mxGeometry y="56" width="160" height="8" as="geometry" />
        </mxCell>
        <mxCell id="GomE2aPVJoHyCFGDOmeS-130" value="+solve(...):Solution" style="text;html=1;align=left;verticalAlign=middle;resizable=0;points=[];autosize=1;strokeColor=none;fillColor=none;" vertex="1" parent="zkfFHV4jXpPFQw0GAbJ--13">
          <mxGeometry y="64" width="160" height="30" as="geometry" />
        </mxCell>
        <mxCell id="GomE2aPVJoHyCFGDOmeS-12" value="&lt;&lt;Interface&gt;&gt;&#xa;ParserÂ " style="swimlane;fontStyle=0;align=center;verticalAlign=top;childLayout=stackLayout;horizontal=1;startSize=40;horizontalStack=0;resizeParent=1;resizeLast=0;collapsible=1;marginBottom=0;rounded=0;shadow=0;strokeWidth=1;" vertex="1" parent="GomE2aPVJoHyCFGDOmeS-0">
          <mxGeometry x="1738" y="69" width="240" height="130" as="geometry">
            <mxRectangle x="550" y="140" width="160" height="26" as="alternateBounds" />
          </mxGeometry>
        </mxCell>
        <mxCell id="GomE2aPVJoHyCFGDOmeS-17" value="" style="line;html=1;strokeWidth=1;align=left;verticalAlign=middle;spacingTop=-1;spacingLeft=3;spacingRight=3;rotatable=0;labelPosition=right;points=[];portConstraint=eastwest;" vertex="1" parent="GomE2aPVJoHyCFGDOmeS-12">
          <mxGeometry y="40" width="240" height="14" as="geometry" />
        </mxCell>
        <mxCell id="GomE2aPVJoHyCFGDOmeS-18" value="+ parse (Path file): Model" style="text;html=1;align=left;verticalAlign=middle;resizable=0;points=[];autosize=1;strokeColor=none;fillColor=none;" vertex="1" parent="GomE2aPVJoHyCFGDOmeS-12">
          <mxGeometry y="54" width="240" height="30" as="geometry" />
        </mxCell>
        <mxCell id="GomE2aPVJoHyCFGDOmeS-20" value="+ parse (String problem): Model&lt;div&gt;&lt;br&gt;&lt;/div&gt;" style="text;html=1;align=left;verticalAlign=middle;resizable=0;points=[];autosize=1;strokeColor=none;fillColor=none;" vertex="1" parent="GomE2aPVJoHyCFGDOmeS-12">
          <mxGeometry y="84" width="240" height="40" as="geometry" />
        </mxCell>
        <mxCell id="GomE2aPVJoHyCFGDOmeS-22" value="Set" style="swimlane;fontStyle=0;align=center;verticalAlign=top;childLayout=stackLayout;horizontal=1;startSize=30;horizontalStack=0;resizeParent=1;resizeLast=0;collapsible=1;marginBottom=0;rounded=0;shadow=0;strokeWidth=1;" vertex="1" parent="GomE2aPVJoHyCFGDOmeS-0">
          <mxGeometry x="590" y="360" width="110" height="68" as="geometry">
            <mxRectangle x="340" y="380" width="170" height="26" as="alternateBounds" />
          </mxGeometry>
        </mxCell>
        <mxCell id="GomE2aPVJoHyCFGDOmeS-29" value="-values" style="text;html=1;align=left;verticalAlign=middle;resizable=0;points=[];autosize=1;strokeColor=none;fillColor=none;" vertex="1" parent="GomE2aPVJoHyCFGDOmeS-22">
          <mxGeometry y="30" width="110" height="30" as="geometry" />
        </mxCell>
        <mxCell id="GomE2aPVJoHyCFGDOmeS-27" value="" style="line;html=1;strokeWidth=1;align=left;verticalAlign=middle;spacingTop=-1;spacingLeft=3;spacingRight=3;rotatable=0;labelPosition=right;points=[];portConstraint=eastwest;" vertex="1" parent="GomE2aPVJoHyCFGDOmeS-22">
          <mxGeometry y="60" width="110" height="8" as="geometry" />
        </mxCell>
        <mxCell id="GomE2aPVJoHyCFGDOmeS-30" value="Parameter" style="swimlane;fontStyle=0;align=center;verticalAlign=top;childLayout=stackLayout;horizontal=1;startSize=30;horizontalStack=0;resizeParent=1;resizeLast=0;collapsible=1;marginBottom=0;rounded=0;shadow=0;strokeWidth=1;" vertex="1" parent="GomE2aPVJoHyCFGDOmeS-0">
          <mxGeometry x="460" y="360" width="120" height="68" as="geometry">
            <mxRectangle x="340" y="380" width="170" height="26" as="alternateBounds" />
          </mxGeometry>
        </mxCell>
        <mxCell id="GomE2aPVJoHyCFGDOmeS-42" value="-value" style="text;html=1;align=left;verticalAlign=middle;resizable=0;points=[];autosize=1;strokeColor=none;fillColor=none;" vertex="1" parent="GomE2aPVJoHyCFGDOmeS-30">
          <mxGeometry y="30" width="120" height="30" as="geometry" />
        </mxCell>
        <mxCell id="GomE2aPVJoHyCFGDOmeS-32" value="" style="line;html=1;strokeWidth=1;align=left;verticalAlign=middle;spacingTop=-1;spacingLeft=3;spacingRight=3;rotatable=0;labelPosition=right;points=[];portConstraint=eastwest;" vertex="1" parent="GomE2aPVJoHyCFGDOmeS-30">
          <mxGeometry y="60" width="120" height="8" as="geometry" />
        </mxCell>
        <mxCell id="GomE2aPVJoHyCFGDOmeS-33" value="Preference" style="swimlane;fontStyle=0;align=center;verticalAlign=top;childLayout=stackLayout;horizontal=1;startSize=30;horizontalStack=0;resizeParent=1;resizeLast=0;collapsible=1;marginBottom=0;rounded=0;shadow=0;strokeWidth=1;" vertex="1" parent="GomE2aPVJoHyCFGDOmeS-0">
          <mxGeometry x="630" y="460" width="160" height="50" as="geometry">
            <mxRectangle x="340" y="380" width="170" height="26" as="alternateBounds" />
          </mxGeometry>
        </mxCell>
        <mxCell id="GomE2aPVJoHyCFGDOmeS-35" value="" style="line;html=1;strokeWidth=1;align=left;verticalAlign=middle;spacingTop=-1;spacingLeft=3;spacingRight=3;rotatable=0;labelPosition=right;points=[];portConstraint=eastwest;" vertex="1" parent="GomE2aPVJoHyCFGDOmeS-33">
          <mxGeometry y="30" width="160" height="8" as="geometry" />
        </mxCell>
        <mxCell id="GomE2aPVJoHyCFGDOmeS-36" value="Constraint" style="swimlane;fontStyle=0;align=center;verticalAlign=top;childLayout=stackLayout;horizontal=1;startSize=30;horizontalStack=0;resizeParent=1;resizeLast=0;collapsible=1;marginBottom=0;rounded=0;shadow=0;strokeWidth=1;" vertex="1" parent="GomE2aPVJoHyCFGDOmeS-0">
          <mxGeometry x="810" y="460" width="160" height="50" as="geometry">
            <mxRectangle x="340" y="380" width="170" height="26" as="alternateBounds" />
          </mxGeometry>
        </mxCell>
        <mxCell id="GomE2aPVJoHyCFGDOmeS-38" value="" style="line;html=1;strokeWidth=1;align=left;verticalAlign=middle;spacingTop=-1;spacingLeft=3;spacingRight=3;rotatable=0;labelPosition=right;points=[];portConstraint=eastwest;" vertex="1" parent="GomE2aPVJoHyCFGDOmeS-36">
          <mxGeometry y="30" width="160" height="8" as="geometry" />
        </mxCell>
        <mxCell id="GomE2aPVJoHyCFGDOmeS-44" value="ZimplParser" style="swimlane;fontStyle=0;align=center;verticalAlign=top;childLayout=stackLayout;horizontal=1;startSize=26;horizontalStack=0;resizeParent=1;resizeLast=0;collapsible=1;marginBottom=0;rounded=0;shadow=0;strokeWidth=1;" vertex="1" parent="GomE2aPVJoHyCFGDOmeS-0">
          <mxGeometry x="1738" y="262" width="240" height="47" as="geometry">
            <mxRectangle x="550" y="140" width="160" height="26" as="alternateBounds" />
          </mxGeometry>
        </mxCell>
        <mxCell id="GomE2aPVJoHyCFGDOmeS-45" value="" style="line;html=1;strokeWidth=1;align=left;verticalAlign=middle;spacingTop=-1;spacingLeft=3;spacingRight=3;rotatable=0;labelPosition=right;points=[];portConstraint=eastwest;" vertex="1" parent="GomE2aPVJoHyCFGDOmeS-44">
          <mxGeometry y="26" width="240" height="8" as="geometry" />
        </mxCell>
        <mxCell id="GomE2aPVJoHyCFGDOmeS-51" value="" style="endArrow=block;endSize=16;endFill=0;html=1;rounded=0;" edge="1" parent="GomE2aPVJoHyCFGDOmeS-0" source="GomE2aPVJoHyCFGDOmeS-44" target="GomE2aPVJoHyCFGDOmeS-12">
          <mxGeometry width="160" relative="1" as="geometry">
            <mxPoint x="1529" y="249" as="sourcePoint" />
            <mxPoint x="1877.0000000000005" y="189" as="targetPoint" />
          </mxGeometry>
        </mxCell>
        <mxCell id="GomE2aPVJoHyCFGDOmeS-60" value="&lt;&lt;Interface&gt;&gt;&#xa;Type" style="swimlane;fontStyle=0;align=center;verticalAlign=top;childLayout=stackLayout;horizontal=1;startSize=40;horizontalStack=0;resizeParent=1;resizeLast=0;collapsible=1;marginBottom=0;rounded=0;shadow=0;strokeWidth=1;" vertex="1" parent="GomE2aPVJoHyCFGDOmeS-0">
          <mxGeometry x="140" y="447" width="100" height="40" as="geometry">
            <mxRectangle x="340" y="380" width="170" height="26" as="alternateBounds" />
          </mxGeometry>
        </mxCell>
        <mxCell id="GomE2aPVJoHyCFGDOmeS-68" value="&lt;&lt;Abstract&gt;&gt;&#xa;Number" style="swimlane;fontStyle=0;align=center;verticalAlign=top;childLayout=stackLayout;horizontal=1;startSize=45;horizontalStack=0;resizeParent=1;resizeLast=0;collapsible=1;marginBottom=0;rounded=0;shadow=0;strokeWidth=1;" vertex="1" parent="GomE2aPVJoHyCFGDOmeS-0">
          <mxGeometry x="140" y="682.5" width="100" height="44.5" as="geometry">
            <mxRectangle x="340" y="380" width="170" height="26" as="alternateBounds" />
          </mxGeometry>
        </mxCell>
        <mxCell id="GomE2aPVJoHyCFGDOmeS-66" value="Text" style="swimlane;fontStyle=0;align=center;verticalAlign=top;childLayout=stackLayout;horizontal=1;startSize=30;horizontalStack=0;resizeParent=1;resizeLast=0;collapsible=1;marginBottom=0;rounded=0;shadow=0;strokeWidth=1;" vertex="1" parent="GomE2aPVJoHyCFGDOmeS-0">
          <mxGeometry x="30" y="597" width="100" height="60" as="geometry">
            <mxRectangle x="340" y="380" width="170" height="26" as="alternateBounds" />
          </mxGeometry>
        </mxCell>
        <mxCell id="GomE2aPVJoHyCFGDOmeS-67" value="-str:String" style="text;html=1;align=left;verticalAlign=middle;resizable=0;points=[];autosize=1;strokeColor=none;fillColor=none;" vertex="1" parent="GomE2aPVJoHyCFGDOmeS-66">
          <mxGeometry y="30" width="100" height="30" as="geometry" />
        </mxCell>
        <mxCell id="GomE2aPVJoHyCFGDOmeS-71" value="Tuple" style="swimlane;fontStyle=0;align=center;verticalAlign=top;childLayout=stackLayout;horizontal=1;startSize=30;horizontalStack=0;resizeParent=1;resizeLast=0;collapsible=1;marginBottom=0;rounded=0;shadow=0;strokeWidth=1;" vertex="1" parent="GomE2aPVJoHyCFGDOmeS-0">
          <mxGeometry x="260" y="591.5" width="100" height="60" as="geometry">
            <mxRectangle x="340" y="380" width="170" height="26" as="alternateBounds" />
          </mxGeometry>
        </mxCell>
        <mxCell id="GomE2aPVJoHyCFGDOmeS-72" value="-valueList" style="text;html=1;align=left;verticalAlign=middle;resizable=0;points=[];autosize=1;strokeColor=none;fillColor=none;" vertex="1" parent="GomE2aPVJoHyCFGDOmeS-71">
          <mxGeometry y="30" width="100" height="30" as="geometry" />
        </mxCell>
        <mxCell id="GomE2aPVJoHyCFGDOmeS-75" value="" style="endArrow=block;endSize=16;endFill=0;html=1;rounded=0;" edge="1" parent="GomE2aPVJoHyCFGDOmeS-0" source="GomE2aPVJoHyCFGDOmeS-68" target="GomE2aPVJoHyCFGDOmeS-60">
          <mxGeometry width="160" relative="1" as="geometry">
            <mxPoint x="352" y="552" as="sourcePoint" />
            <mxPoint x="320.00000000000045" y="447" as="targetPoint" />
          </mxGeometry>
        </mxCell>
        <mxCell id="GomE2aPVJoHyCFGDOmeS-77" value="" style="endArrow=block;endSize=16;endFill=0;html=1;rounded=0;" edge="1" parent="GomE2aPVJoHyCFGDOmeS-0" source="GomE2aPVJoHyCFGDOmeS-66" target="GomE2aPVJoHyCFGDOmeS-60">
          <mxGeometry width="160" relative="1" as="geometry">
            <mxPoint x="107" y="558" as="sourcePoint" />
            <mxPoint x="43" y="505" as="targetPoint" />
          </mxGeometry>
        </mxCell>
        <mxCell id="GomE2aPVJoHyCFGDOmeS-78" value="" style="endArrow=block;endSize=16;endFill=0;html=1;rounded=0;exitX=0.5;exitY=0;exitDx=0;exitDy=0;" edge="1" parent="GomE2aPVJoHyCFGDOmeS-0" source="GomE2aPVJoHyCFGDOmeS-71" target="GomE2aPVJoHyCFGDOmeS-60">
          <mxGeometry width="160" relative="1" as="geometry">
            <mxPoint x="240" y="675" as="sourcePoint" />
            <mxPoint x="176" y="622" as="targetPoint" />
          </mxGeometry>
        </mxCell>
        <mxCell id="GomE2aPVJoHyCFGDOmeS-80" style="edgeStyle=orthogonalEdgeStyle;rounded=0;orthogonalLoop=1;jettySize=auto;html=1;" edge="1" parent="GomE2aPVJoHyCFGDOmeS-0" source="GomE2aPVJoHyCFGDOmeS-71" target="GomE2aPVJoHyCFGDOmeS-71">
          <mxGeometry relative="1" as="geometry" />
        </mxCell>
        <mxCell id="GomE2aPVJoHyCFGDOmeS-82" value="Integer" style="swimlane;fontStyle=0;align=center;verticalAlign=top;childLayout=stackLayout;horizontal=1;startSize=30;horizontalStack=0;resizeParent=1;resizeLast=0;collapsible=1;marginBottom=0;rounded=0;shadow=0;strokeWidth=1;" vertex="1" parent="GomE2aPVJoHyCFGDOmeS-0">
          <mxGeometry x="50" y="807" width="100" height="60" as="geometry">
            <mxRectangle x="340" y="380" width="170" height="26" as="alternateBounds" />
          </mxGeometry>
        </mxCell>
        <mxCell id="GomE2aPVJoHyCFGDOmeS-83" value="-value:int" style="text;html=1;align=left;verticalAlign=middle;resizable=0;points=[];autosize=1;strokeColor=none;fillColor=none;" vertex="1" parent="GomE2aPVJoHyCFGDOmeS-82">
          <mxGeometry y="30" width="100" height="30" as="geometry" />
        </mxCell>
        <mxCell id="GomE2aPVJoHyCFGDOmeS-85" value="" style="endArrow=block;endSize=16;endFill=0;html=1;rounded=0;" edge="1" parent="GomE2aPVJoHyCFGDOmeS-0" source="GomE2aPVJoHyCFGDOmeS-82" target="GomE2aPVJoHyCFGDOmeS-68">
          <mxGeometry width="160" relative="1" as="geometry">
            <mxPoint x="364" y="728" as="sourcePoint" />
            <mxPoint x="300" y="675" as="targetPoint" />
          </mxGeometry>
        </mxCell>
        <mxCell id="GomE2aPVJoHyCFGDOmeS-86" value="Real" style="swimlane;fontStyle=0;align=center;verticalAlign=top;childLayout=stackLayout;horizontal=1;startSize=30;horizontalStack=0;resizeParent=1;resizeLast=0;collapsible=1;marginBottom=0;rounded=0;shadow=0;strokeWidth=1;" vertex="1" parent="GomE2aPVJoHyCFGDOmeS-0">
          <mxGeometry x="160" y="807" width="100" height="60" as="geometry">
            <mxRectangle x="340" y="380" width="170" height="26" as="alternateBounds" />
          </mxGeometry>
        </mxCell>
        <mxCell id="GomE2aPVJoHyCFGDOmeS-87" value="-value:double" style="text;html=1;align=left;verticalAlign=middle;resizable=0;points=[];autosize=1;strokeColor=none;fillColor=none;" vertex="1" parent="GomE2aPVJoHyCFGDOmeS-86">
          <mxGeometry y="30" width="100" height="30" as="geometry" />
        </mxCell>
        <mxCell id="GomE2aPVJoHyCFGDOmeS-88" value="" style="endArrow=block;endSize=16;endFill=0;html=1;rounded=0;" edge="1" parent="GomE2aPVJoHyCFGDOmeS-0" source="GomE2aPVJoHyCFGDOmeS-86" target="GomE2aPVJoHyCFGDOmeS-68">
          <mxGeometry width="160" relative="1" as="geometry">
            <mxPoint x="250" y="821" as="sourcePoint" />
            <mxPoint x="296" y="757" as="targetPoint" />
          </mxGeometry>
        </mxCell>
        <mxCell id="GomE2aPVJoHyCFGDOmeS-91" value="&lt;&lt;Abstract&gt;&gt;&#xa;ModelComponent" style="swimlane;fontStyle=0;align=center;verticalAlign=top;childLayout=stackLayout;horizontal=1;startSize=43;horizontalStack=0;resizeParent=1;resizeLast=0;collapsible=1;marginBottom=0;rounded=0;shadow=0;strokeWidth=1;" vertex="1" parent="GomE2aPVJoHyCFGDOmeS-0">
          <mxGeometry x="720" y="60" width="160" height="141" as="geometry">
            <mxRectangle x="340" y="380" width="170" height="26" as="alternateBounds" />
          </mxGeometry>
        </mxCell>
        <mxCell id="GomE2aPVJoHyCFGDOmeS-92" value="-isExposedToUser" style="text;html=1;align=left;verticalAlign=middle;resizable=0;points=[];autosize=1;strokeColor=none;fillColor=none;" vertex="1" parent="GomE2aPVJoHyCFGDOmeS-91">
          <mxGeometry y="43" width="160" height="30" as="geometry" />
        </mxCell>
        <mxCell id="GomE2aPVJoHyCFGDOmeS-93" value="-name" style="text;html=1;align=left;verticalAlign=middle;resizable=0;points=[];autosize=1;strokeColor=none;fillColor=none;" vertex="1" parent="GomE2aPVJoHyCFGDOmeS-91">
          <mxGeometry y="73" width="160" height="30" as="geometry" />
        </mxCell>
        <mxCell id="GomE2aPVJoHyCFGDOmeS-104" value="-description" style="text;html=1;align=left;verticalAlign=middle;resizable=0;points=[];autosize=1;strokeColor=none;fillColor=none;" vertex="1" parent="GomE2aPVJoHyCFGDOmeS-91">
          <mxGeometry y="103" width="160" height="30" as="geometry" />
        </mxCell>
        <mxCell id="GomE2aPVJoHyCFGDOmeS-94" value="" style="line;html=1;strokeWidth=1;align=left;verticalAlign=middle;spacingTop=-1;spacingLeft=3;spacingRight=3;rotatable=0;labelPosition=right;points=[];portConstraint=eastwest;" vertex="1" parent="GomE2aPVJoHyCFGDOmeS-91">
          <mxGeometry y="133" width="160" height="8" as="geometry" />
        </mxCell>
        <mxCell id="GomE2aPVJoHyCFGDOmeS-95" value="" style="endArrow=block;endSize=16;endFill=0;html=1;rounded=0;" edge="1" parent="GomE2aPVJoHyCFGDOmeS-0" source="GomE2aPVJoHyCFGDOmeS-33" target="GomE2aPVJoHyCFGDOmeS-105">
          <mxGeometry width="160" relative="1" as="geometry">
            <mxPoint x="550" y="180" as="sourcePoint" />
            <mxPoint x="495" y="100" as="targetPoint" />
          </mxGeometry>
        </mxCell>
        <mxCell id="GomE2aPVJoHyCFGDOmeS-96" value="" style="endArrow=block;endSize=16;endFill=0;html=1;rounded=0;" edge="1" parent="GomE2aPVJoHyCFGDOmeS-0" source="GomE2aPVJoHyCFGDOmeS-36" target="GomE2aPVJoHyCFGDOmeS-105">
          <mxGeometry width="160" relative="1" as="geometry">
            <mxPoint x="580" y="280" as="sourcePoint" />
            <mxPoint x="525" y="200" as="targetPoint" />
          </mxGeometry>
        </mxCell>
        <mxCell id="GomE2aPVJoHyCFGDOmeS-98" value="" style="endArrow=block;endSize=16;endFill=0;html=1;rounded=0;" edge="1" parent="GomE2aPVJoHyCFGDOmeS-0" source="GomE2aPVJoHyCFGDOmeS-30" target="GomE2aPVJoHyCFGDOmeS-99">
          <mxGeometry width="160" relative="1" as="geometry">
            <mxPoint x="600" y="300" as="sourcePoint" />
            <mxPoint x="545" y="220" as="targetPoint" />
          </mxGeometry>
        </mxCell>
        <mxCell id="GomE2aPVJoHyCFGDOmeS-97" value="" style="endArrow=block;endSize=16;endFill=0;html=1;rounded=0;" edge="1" parent="GomE2aPVJoHyCFGDOmeS-0" source="GomE2aPVJoHyCFGDOmeS-22" target="GomE2aPVJoHyCFGDOmeS-99">
          <mxGeometry width="160" relative="1" as="geometry">
            <mxPoint x="590" y="290" as="sourcePoint" />
            <mxPoint x="535" y="210" as="targetPoint" />
          </mxGeometry>
        </mxCell>
        <mxCell id="GomE2aPVJoHyCFGDOmeS-99" value="&lt;&lt;Abstract&gt;&gt;&#xa;ModelConfigurables" style="swimlane;fontStyle=0;align=center;verticalAlign=top;childLayout=stackLayout;horizontal=1;startSize=43;horizontalStack=0;resizeParent=1;resizeLast=0;collapsible=1;marginBottom=0;rounded=0;shadow=0;strokeWidth=1;" vertex="1" parent="GomE2aPVJoHyCFGDOmeS-0">
          <mxGeometry x="510" y="200" width="160" height="113" as="geometry">
            <mxRectangle x="340" y="380" width="170" height="26" as="alternateBounds" />
          </mxGeometry>
        </mxCell>
        <mxCell id="GomE2aPVJoHyCFGDOmeS-100" value="-elementType" style="text;html=1;align=left;verticalAlign=middle;resizable=0;points=[];autosize=1;strokeColor=none;fillColor=none;" vertex="1" parent="GomE2aPVJoHyCFGDOmeS-99">
          <mxGeometry y="43" width="160" height="30" as="geometry" />
        </mxCell>
        <mxCell id="GomE2aPVJoHyCFGDOmeS-101" value="-values" style="text;html=1;align=left;verticalAlign=middle;resizable=0;points=[];autosize=1;strokeColor=none;fillColor=none;" vertex="1" parent="GomE2aPVJoHyCFGDOmeS-99">
          <mxGeometry y="73" width="160" height="30" as="geometry" />
        </mxCell>
        <mxCell id="GomE2aPVJoHyCFGDOmeS-102" value="" style="line;html=1;strokeWidth=1;align=left;verticalAlign=middle;spacingTop=-1;spacingLeft=3;spacingRight=3;rotatable=0;labelPosition=right;points=[];portConstraint=eastwest;" vertex="1" parent="GomE2aPVJoHyCFGDOmeS-99">
          <mxGeometry y="103" width="160" height="8" as="geometry" />
        </mxCell>
        <mxCell id="GomE2aPVJoHyCFGDOmeS-103" value="" style="endArrow=block;endSize=16;endFill=0;html=1;rounded=0;" edge="1" parent="GomE2aPVJoHyCFGDOmeS-0" source="GomE2aPVJoHyCFGDOmeS-99" target="GomE2aPVJoHyCFGDOmeS-91">
          <mxGeometry width="160" relative="1" as="geometry">
            <mxPoint x="613" y="295" as="sourcePoint" />
            <mxPoint x="575" y="233" as="targetPoint" />
          </mxGeometry>
        </mxCell>
        <mxCell id="GomE2aPVJoHyCFGDOmeS-105" value="&lt;&lt;Abstract&gt;&gt;&#xa;ModelFunctionalities" style="swimlane;fontStyle=0;align=center;verticalAlign=top;childLayout=stackLayout;horizontal=1;startSize=43;horizontalStack=0;resizeParent=1;resizeLast=0;collapsible=1;marginBottom=0;rounded=0;shadow=0;strokeWidth=1;" vertex="1" parent="GomE2aPVJoHyCFGDOmeS-0">
          <mxGeometry x="730" y="263.5" width="160" height="141" as="geometry">
            <mxRectangle x="340" y="380" width="170" height="26" as="alternateBounds" />
          </mxGeometry>
        </mxCell>
        <mxCell id="GomE2aPVJoHyCFGDOmeS-52" value="-expression" style="text;html=1;align=left;verticalAlign=middle;resizable=0;points=[];autosize=1;strokeColor=none;fillColor=none;" vertex="1" parent="GomE2aPVJoHyCFGDOmeS-105">
          <mxGeometry y="43" width="160" height="30" as="geometry" />
        </mxCell>
        <mxCell id="GomE2aPVJoHyCFGDOmeS-53" value="-exposedIdentifiers" style="text;html=1;align=left;verticalAlign=middle;resizable=0;points=[];autosize=1;strokeColor=none;fillColor=none;" vertex="1" parent="GomE2aPVJoHyCFGDOmeS-105">
          <mxGeometry y="73" width="160" height="30" as="geometry" />
        </mxCell>
        <mxCell id="GomE2aPVJoHyCFGDOmeS-121" value="-isTurnedOn" style="text;html=1;align=left;verticalAlign=middle;resizable=0;points=[];autosize=1;strokeColor=none;fillColor=none;" vertex="1" parent="GomE2aPVJoHyCFGDOmeS-105">
          <mxGeometry y="103" width="160" height="30" as="geometry" />
        </mxCell>
        <mxCell id="GomE2aPVJoHyCFGDOmeS-108" value="" style="line;html=1;strokeWidth=1;align=left;verticalAlign=middle;spacingTop=-1;spacingLeft=3;spacingRight=3;rotatable=0;labelPosition=right;points=[];portConstraint=eastwest;" vertex="1" parent="GomE2aPVJoHyCFGDOmeS-105">
          <mxGeometry y="133" width="160" height="8" as="geometry" />
        </mxCell>
        <mxCell id="GomE2aPVJoHyCFGDOmeS-109" value="" style="endArrow=block;endSize=16;endFill=0;html=1;rounded=0;" edge="1" parent="GomE2aPVJoHyCFGDOmeS-0" source="GomE2aPVJoHyCFGDOmeS-105" target="GomE2aPVJoHyCFGDOmeS-91">
          <mxGeometry width="160" relative="1" as="geometry">
            <mxPoint x="973" y="344.5" as="sourcePoint" />
            <mxPoint x="930" y="217.5" as="targetPoint" />
          </mxGeometry>
        </mxCell>
        <mxCell id="GomE2aPVJoHyCFGDOmeS-114" value="EndUserController" style="swimlane;fontStyle=2;align=center;verticalAlign=top;childLayout=stackLayout;horizontal=1;startSize=26;horizontalStack=0;resizeParent=1;resizeLast=0;collapsible=1;marginBottom=0;rounded=0;shadow=0;strokeWidth=1;" vertex="1" parent="GomE2aPVJoHyCFGDOmeS-0">
          <mxGeometry x="1054" y="106.5" width="300" height="298" as="geometry">
            <mxRectangle x="230" y="140" width="160" height="26" as="alternateBounds" />
          </mxGeometry>
        </mxCell>
        <mxCell id="GomE2aPVJoHyCFGDOmeS-115" value="- model" style="text;align=left;verticalAlign=top;spacingLeft=4;spacingRight=4;overflow=hidden;rotatable=0;points=[[0,0.5],[1,0.5]];portConstraint=eastwest;rounded=0;shadow=0;html=0;" vertex="1" parent="GomE2aPVJoHyCFGDOmeS-114">
          <mxGeometry y="26" width="300" height="24" as="geometry" />
        </mxCell>
        <mxCell id="GomE2aPVJoHyCFGDOmeS-116" value="" style="line;html=1;strokeWidth=1;align=left;verticalAlign=middle;spacingTop=-1;spacingLeft=3;spacingRight=3;rotatable=0;labelPosition=right;points=[];portConstraint=eastwest;" vertex="1" parent="GomE2aPVJoHyCFGDOmeS-114">
          <mxGeometry y="50" width="300" height="8" as="geometry" />
        </mxCell>
        <mxCell id="GomE2aPVJoHyCFGDOmeS-127" value="+getModel(...)" style="text;html=1;align=left;verticalAlign=middle;resizable=0;points=[];autosize=1;strokeColor=none;fillColor=none;" vertex="1" parent="GomE2aPVJoHyCFGDOmeS-114">
          <mxGeometry y="58" width="300" height="30" as="geometry" />
        </mxCell>
        <mxCell id="GomE2aPVJoHyCFGDOmeS-123" value="+setModelFunctionalityOff(...)" style="text;html=1;align=left;verticalAlign=middle;resizable=0;points=[];autosize=1;strokeColor=none;fillColor=none;" vertex="1" parent="GomE2aPVJoHyCFGDOmeS-114">
          <mxGeometry y="88" width="300" height="30" as="geometry" />
        </mxCell>
        <mxCell id="GomE2aPVJoHyCFGDOmeS-120" value="+setModelFunctionalityOn(...)" style="text;html=1;align=left;verticalAlign=middle;resizable=0;points=[];autosize=1;strokeColor=none;fillColor=none;" vertex="1" parent="GomE2aPVJoHyCFGDOmeS-114">
          <mxGeometry y="118" width="300" height="30" as="geometry" />
        </mxCell>
        <mxCell id="GomE2aPVJoHyCFGDOmeS-122" value="+setParamValue(...)" style="text;html=1;align=left;verticalAlign=middle;resizable=0;points=[];autosize=1;strokeColor=none;fillColor=none;" vertex="1" parent="GomE2aPVJoHyCFGDOmeS-114">
          <mxGeometry y="148" width="300" height="30" as="geometry" />
        </mxCell>
        <mxCell id="GomE2aPVJoHyCFGDOmeS-124" value="+setSet(...)" style="text;html=1;align=left;verticalAlign=middle;resizable=0;points=[];autosize=1;strokeColor=none;fillColor=none;" vertex="1" parent="GomE2aPVJoHyCFGDOmeS-114">
          <mxGeometry y="178" width="300" height="30" as="geometry" />
        </mxCell>
        <mxCell id="GomE2aPVJoHyCFGDOmeS-126" value="+removeFromSet(...)" style="text;html=1;align=left;verticalAlign=middle;resizable=0;points=[];autosize=1;strokeColor=none;fillColor=none;" vertex="1" parent="GomE2aPVJoHyCFGDOmeS-114">
          <mxGeometry y="208" width="300" height="30" as="geometry" />
        </mxCell>
        <mxCell id="GomE2aPVJoHyCFGDOmeS-125" value="+addToSet(...)" style="text;html=1;align=left;verticalAlign=middle;resizable=0;points=[];autosize=1;strokeColor=none;fillColor=none;" vertex="1" parent="GomE2aPVJoHyCFGDOmeS-114">
          <mxGeometry y="238" width="300" height="30" as="geometry" />
        </mxCell>
        <mxCell id="GomE2aPVJoHyCFGDOmeS-128" value="+setHistory(...)" style="text;html=1;align=left;verticalAlign=middle;resizable=0;points=[];autosize=1;strokeColor=none;fillColor=none;" vertex="1" parent="GomE2aPVJoHyCFGDOmeS-114">
          <mxGeometry y="268" width="300" height="30" as="geometry" />
        </mxCell>
        <mxCell id="GomE2aPVJoHyCFGDOmeS-269" style="edgeStyle=orthogonalEdgeStyle;rounded=0;orthogonalLoop=1;jettySize=auto;html=1;" edge="1" parent="GomE2aPVJoHyCFGDOmeS-0" source="GomE2aPVJoHyCFGDOmeS-131" target="GomE2aPVJoHyCFGDOmeS-155">
          <mxGeometry relative="1" as="geometry">
            <Array as="points">
              <mxPoint x="430" y="180" />
              <mxPoint x="580" y="180" />
            </Array>
          </mxGeometry>
        </mxCell>
        <mxCell id="GomE2aPVJoHyCFGDOmeS-131" value="Solution" style="swimlane;fontStyle=0;align=center;verticalAlign=top;childLayout=stackLayout;horizontal=1;startSize=30;horizontalStack=0;resizeParent=1;resizeLast=0;collapsible=1;marginBottom=0;rounded=0;shadow=0;strokeWidth=1;" vertex="1" parent="GomE2aPVJoHyCFGDOmeS-0">
          <mxGeometry x="415" y="560" width="165" height="80" as="geometry">
            <mxRectangle x="340" y="380" width="170" height="26" as="alternateBounds" />
          </mxGeometry>
        </mxCell>
        <mxCell id="GomE2aPVJoHyCFGDOmeS-268" value="- results:List&amp;lt;ModelOutput&amp;gt;" style="text;html=1;align=left;verticalAlign=middle;resizable=0;points=[];autosize=1;strokeColor=none;fillColor=none;" vertex="1" parent="GomE2aPVJoHyCFGDOmeS-131">
          <mxGeometry y="30" width="165" height="30" as="geometry" />
        </mxCell>
        <mxCell id="GomE2aPVJoHyCFGDOmeS-132" value="" style="line;html=1;strokeWidth=1;align=left;verticalAlign=middle;spacingTop=-1;spacingLeft=3;spacingRight=3;rotatable=0;labelPosition=right;points=[];portConstraint=eastwest;" vertex="1" parent="GomE2aPVJoHyCFGDOmeS-131">
          <mxGeometry y="60" width="165" height="10" as="geometry" />
        </mxCell>
        <mxCell id="GomE2aPVJoHyCFGDOmeS-144" value="CreativeModeController" style="swimlane;fontStyle=2;align=center;verticalAlign=top;childLayout=stackLayout;horizontal=1;startSize=26;horizontalStack=0;resizeParent=1;resizeLast=0;collapsible=1;marginBottom=0;rounded=0;shadow=0;strokeWidth=1;" vertex="1" parent="GomE2aPVJoHyCFGDOmeS-0">
          <mxGeometry x="1380" y="110" width="300" height="208" as="geometry">
            <mxRectangle x="230" y="140" width="160" height="26" as="alternateBounds" />
          </mxGeometry>
        </mxCell>
        <mxCell id="GomE2aPVJoHyCFGDOmeS-145" value="- model" style="text;align=left;verticalAlign=top;spacingLeft=4;spacingRight=4;overflow=hidden;rotatable=0;points=[[0,0.5],[1,0.5]];portConstraint=eastwest;rounded=0;shadow=0;html=0;" vertex="1" parent="GomE2aPVJoHyCFGDOmeS-144">
          <mxGeometry y="26" width="300" height="24" as="geometry" />
        </mxCell>
        <mxCell id="GomE2aPVJoHyCFGDOmeS-146" value="" style="line;html=1;strokeWidth=1;align=left;verticalAlign=middle;spacingTop=-1;spacingLeft=3;spacingRight=3;rotatable=0;labelPosition=right;points=[];portConstraint=eastwest;" vertex="1" parent="GomE2aPVJoHyCFGDOmeS-144">
          <mxGeometry y="50" width="300" height="8" as="geometry" />
        </mxCell>
        <mxCell id="GomE2aPVJoHyCFGDOmeS-274" value="+getModel(...)" style="text;html=1;align=left;verticalAlign=middle;resizable=0;points=[];autosize=1;strokeColor=none;fillColor=none;" vertex="1" parent="GomE2aPVJoHyCFGDOmeS-144">
          <mxGeometry y="58" width="300" height="30" as="geometry" />
        </mxCell>
        <mxCell id="zkfFHV4jXpPFQw0GAbJ--5" value="+createNewModel(Path filePath): ModelDTO" style="text;align=left;verticalAlign=top;spacingLeft=4;spacingRight=4;overflow=hidden;rotatable=0;points=[[0,0.5],[1,0.5]];portConstraint=eastwest;" parent="GomE2aPVJoHyCFGDOmeS-144" vertex="1">
          <mxGeometry y="88" width="300" height="26" as="geometry" />
        </mxCell>
        <mxCell id="GomE2aPVJoHyCFGDOmeS-277" value="+setModelComponentsExposed(...)" style="text;html=1;align=left;verticalAlign=middle;resizable=0;points=[];autosize=1;strokeColor=none;fillColor=none;" vertex="1" parent="GomE2aPVJoHyCFGDOmeS-144">
          <mxGeometry y="114" width="300" height="30" as="geometry" />
        </mxCell>
        <mxCell id="GomE2aPVJoHyCFGDOmeS-279" value="+setModelComponentsUnexposed(...)" style="text;html=1;align=left;verticalAlign=middle;resizable=0;points=[];autosize=1;strokeColor=none;fillColor=none;" vertex="1" parent="GomE2aPVJoHyCFGDOmeS-144">
          <mxGeometry y="144" width="300" height="30" as="geometry" />
        </mxCell>
        <mxCell id="GomE2aPVJoHyCFGDOmeS-160" value="Variable" style="swimlane;fontStyle=0;align=center;verticalAlign=top;childLayout=stackLayout;horizontal=1;startSize=43;horizontalStack=0;resizeParent=1;resizeLast=0;collapsible=1;marginBottom=0;rounded=0;shadow=0;strokeWidth=1;" vertex="1" parent="GomE2aPVJoHyCFGDOmeS-0">
          <mxGeometry x="210" y="30" width="160" height="100" as="geometry">
            <mxRectangle x="340" y="380" width="170" height="26" as="alternateBounds" />
          </mxGeometry>
        </mxCell>
        <mxCell id="GomE2aPVJoHyCFGDOmeS-165" value="-value:Number" style="text;html=1;align=left;verticalAlign=middle;resizable=0;points=[];autosize=1;strokeColor=none;fillColor=none;" vertex="1" parent="GomE2aPVJoHyCFGDOmeS-160">
          <mxGeometry y="43" width="160" height="30" as="geometry" />
        </mxCell>
        <mxCell id="GomE2aPVJoHyCFGDOmeS-161" value="" style="line;html=1;strokeWidth=1;align=left;verticalAlign=middle;spacingTop=-1;spacingLeft=3;spacingRight=3;rotatable=0;labelPosition=right;points=[];portConstraint=eastwest;" vertex="1" parent="GomE2aPVJoHyCFGDOmeS-160">
          <mxGeometry y="73" width="160" height="8" as="geometry" />
        </mxCell>
        <mxCell id="GomE2aPVJoHyCFGDOmeS-162" value="Binary" style="swimlane;fontStyle=0;align=center;verticalAlign=top;childLayout=stackLayout;horizontal=1;startSize=30;horizontalStack=0;resizeParent=1;resizeLast=0;collapsible=1;marginBottom=0;rounded=0;shadow=0;strokeWidth=1;" vertex="1" parent="GomE2aPVJoHyCFGDOmeS-0">
          <mxGeometry x="270" y="810" width="100" height="60" as="geometry">
            <mxRectangle x="340" y="380" width="170" height="26" as="alternateBounds" />
          </mxGeometry>
        </mxCell>
        <mxCell id="GomE2aPVJoHyCFGDOmeS-163" value="-isSet:boolean" style="text;html=1;align=left;verticalAlign=middle;resizable=0;points=[];autosize=1;strokeColor=none;fillColor=none;" vertex="1" parent="GomE2aPVJoHyCFGDOmeS-162">
          <mxGeometry y="30" width="100" height="30" as="geometry" />
        </mxCell>
        <mxCell id="GomE2aPVJoHyCFGDOmeS-164" value="" style="endArrow=block;endSize=16;endFill=0;html=1;rounded=0;exitX=0.25;exitY=0;exitDx=0;exitDy=0;" edge="1" parent="GomE2aPVJoHyCFGDOmeS-0" source="GomE2aPVJoHyCFGDOmeS-162" target="GomE2aPVJoHyCFGDOmeS-68">
          <mxGeometry width="160" relative="1" as="geometry">
            <mxPoint x="292" y="790" as="sourcePoint" />
            <mxPoint x="280" y="710" as="targetPoint" />
          </mxGeometry>
        </mxCell>
        <mxCell id="GomE2aPVJoHyCFGDOmeS-260" value="CorrelatingVariable" style="swimlane;fontStyle=0;align=center;verticalAlign=top;childLayout=stackLayout;horizontal=1;startSize=43;horizontalStack=0;resizeParent=1;resizeLast=0;collapsible=1;marginBottom=0;rounded=0;shadow=0;strokeWidth=1;" vertex="1" parent="GomE2aPVJoHyCFGDOmeS-0">
          <mxGeometry x="217" y="152" width="160" height="111" as="geometry">
            <mxRectangle x="340" y="380" width="170" height="26" as="alternateBounds" />
          </mxGeometry>
        </mxCell>
        <mxCell id="GomE2aPVJoHyCFGDOmeS-263" value="-set:Set" style="text;html=1;align=left;verticalAlign=middle;resizable=0;points=[];autosize=1;strokeColor=none;fillColor=none;" vertex="1" parent="GomE2aPVJoHyCFGDOmeS-260">
          <mxGeometry y="43" width="160" height="30" as="geometry" />
        </mxCell>
        <mxCell id="GomE2aPVJoHyCFGDOmeS-264" value="-values:List&amp;lt;Number&amp;gt;" style="text;html=1;align=left;verticalAlign=middle;resizable=0;points=[];autosize=1;strokeColor=none;fillColor=none;" vertex="1" parent="GomE2aPVJoHyCFGDOmeS-260">
          <mxGeometry y="73" width="160" height="30" as="geometry" />
        </mxCell>
        <mxCell id="GomE2aPVJoHyCFGDOmeS-262" value="" style="line;html=1;strokeWidth=1;align=left;verticalAlign=middle;spacingTop=-1;spacingLeft=3;spacingRight=3;rotatable=0;labelPosition=right;points=[];portConstraint=eastwest;" vertex="1" parent="GomE2aPVJoHyCFGDOmeS-260">
          <mxGeometry y="103" width="160" height="8" as="geometry" />
        </mxCell>
        <mxCell id="GomE2aPVJoHyCFGDOmeS-155" value="&lt;&lt;Abstract&gt;&gt;&#xa;ModelOutput" style="swimlane;fontStyle=0;align=center;verticalAlign=top;childLayout=stackLayout;horizontal=1;startSize=43;horizontalStack=0;resizeParent=1;resizeLast=0;collapsible=1;marginBottom=0;rounded=0;shadow=0;strokeWidth=1;" vertex="1" parent="GomE2aPVJoHyCFGDOmeS-0">
          <mxGeometry x="500" y="70" width="160" height="51" as="geometry">
            <mxRectangle x="340" y="380" width="170" height="26" as="alternateBounds" />
          </mxGeometry>
        </mxCell>
        <mxCell id="GomE2aPVJoHyCFGDOmeS-158" value="" style="line;html=1;strokeWidth=1;align=left;verticalAlign=middle;spacingTop=-1;spacingLeft=3;spacingRight=3;rotatable=0;labelPosition=right;points=[];portConstraint=eastwest;" vertex="1" parent="GomE2aPVJoHyCFGDOmeS-155">
          <mxGeometry y="43" width="160" height="8" as="geometry" />
        </mxCell>
        <mxCell id="GomE2aPVJoHyCFGDOmeS-159" value="" style="endArrow=block;endSize=16;endFill=0;html=1;rounded=0;" edge="1" parent="GomE2aPVJoHyCFGDOmeS-0" source="GomE2aPVJoHyCFGDOmeS-155" target="GomE2aPVJoHyCFGDOmeS-91">
          <mxGeometry width="160" relative="1" as="geometry">
            <mxPoint x="680" y="218" as="sourcePoint" />
            <mxPoint x="730" y="188" as="targetPoint" />
          </mxGeometry>
        </mxCell>
        <mxCell id="GomE2aPVJoHyCFGDOmeS-266" value="" style="endArrow=block;endSize=16;endFill=0;html=1;rounded=0;" edge="1" parent="GomE2aPVJoHyCFGDOmeS-0" source="GomE2aPVJoHyCFGDOmeS-160" target="GomE2aPVJoHyCFGDOmeS-155">
          <mxGeometry width="160" relative="1" as="geometry">
            <mxPoint x="680" y="128" as="sourcePoint" />
            <mxPoint x="740" y="138" as="targetPoint" />
          </mxGeometry>
        </mxCell>
        <mxCell id="GomE2aPVJoHyCFGDOmeS-267" value="" style="endArrow=block;endSize=16;endFill=0;html=1;rounded=0;" edge="1" parent="GomE2aPVJoHyCFGDOmeS-0" source="GomE2aPVJoHyCFGDOmeS-260" target="GomE2aPVJoHyCFGDOmeS-155">
          <mxGeometry width="160" relative="1" as="geometry">
            <mxPoint x="690" y="138" as="sourcePoint" />
            <mxPoint x="750" y="148" as="targetPoint" />
          </mxGeometry>
        </mxCell>
        <mxCell id="GomE2aPVJoHyCFGDOmeS-1" value="Presentation Layer" style="swimlane;" vertex="1" parent="WIyWlLk6GJQsqaUBKTNV-1">
          <mxGeometry y="-500" width="790" height="480" as="geometry" />
        </mxCell>
        <mxCell id="GomE2aPVJoHyCFGDOmeS-2" value="" style="shape=doubleArrow;direction=south;whiteSpace=wrap;html=1;" vertex="1" parent="WIyWlLk6GJQsqaUBKTNV-1">
          <mxGeometry x="380" y="-20" width="60" height="310" as="geometry" />
        </mxCell>
        <mxCell id="GomE2aPVJoHyCFGDOmeS-3" value="&lt;font style=&quot;font-size: 25px;&quot;&gt;HTTP&lt;/font&gt;" style="text;html=1;align=center;verticalAlign=middle;resizable=0;points=[];autosize=1;strokeColor=none;fillColor=none;" vertex="1" parent="WIyWlLk6GJQsqaUBKTNV-1">
          <mxGeometry x="440" y="110" width="90" height="40" as="geometry" />
        </mxCell>
        <mxCell id="GomE2aPVJoHyCFGDOmeS-5" value="Data Access Layer" style="swimlane;" vertex="1" parent="WIyWlLk6GJQsqaUBKTNV-1">
          <mxGeometry x="25" y="1310" width="740" height="340" as="geometry" />
        </mxCell>
      </root>
    </mxGraphModel>
  </diagram>
</mxfile>
